# xmcd
#
# Track frame offsets:
#	150
#	12363
#	25418
#	43108
#	55998
#	67520
#	79908
#	93985
#	105620
#	118850
#	135928
#	150068
#	162705
#	174430
#	188638
#	201193
#	214720
#	232415
#	246168
#	259783
#	271133
#	282783
#	293645
#	306575
#	319725
#	331133
#	342830
#
# Disc length: 4779 seconds
#
# Revision: 0
# Processed by: cddbd v1.5.1PL0 Copyright (c) Steve Scherf et al.
# Submitted via: audiograbber 1.83.01
#
DISCID=7f12a91b
DTITLE=Hank Snow - The Singing Ranger, Vol. 4 (1 of 9)
DYEAR=1900
DGENRE=
TTITLE0=If I Ever Get Back to Georgia
TTITLE1=Gentle on My Mind
TTITLE2=Honey
TTITLE3=Sweet Dreams
TTITLE4=Break My Mind
TTITLE5=Where Has All the Love Gone?
TTITLE6=Green, Green, Green
TTITLE7=Oh, Lonesome Me
TTITLE8=Like a Bird
TTITLE9=I Really Don't Want to Know
TTITLE10=(As Love Goes) So Goes My Heart
TTITLE11=Vanishing Breed
TTITLE12=It's a Hard Wind That Blows
TTITLE13=Brand on My Heart
TTITLE14=Francesca
TTITLE15=When Today Is a Long Time Ago
TTITLE16=Come the Morning
TTITLE17=I Wish It Was Mine
TTITLE18=Cure for the Blues
TTITLE19=Crying Time
TTITLE20=There's the Chair
TTITLE21=Snowbird
TTITLE22=I Threw Away the Rose
TTITLE23=Me and Bobby McGee
TTITLE24=Just Bidin' My Time
TTITLE25=You're Wondering Why
TTITLE26=Ninety Miles an Hour (Down a Dead End Street)
EXTD=
EXTT0=
EXTT1=
EXTT2=
EXTT3=
EXTT4=
EXTT5=
EXTT6=
EXTT7=
EXTT8=
EXTT9=
EXTT10=
EXTT11=
EXTT12=
EXTT13=
EXTT14=
EXTT15=
EXTT16=
EXTT17=
EXTT18=
EXTT19=
EXTT20=
EXTT21=
EXTT22=
EXTT23=
EXTT24=
EXTT25=
EXTT26=
PLAYORDER=
